<svg id="SvgjsSvg1068" width="288" height="288" xmlns="http://www.w3.org/2000/svg" version="1.1" xmlns:xlink="http://www.w3.org/1999/xlink" xmlns:svgjs="http://svgjs.com/svgjs"><defs id="SvgjsDefs1069"></defs><g id="SvgjsG1070"><svg xmlns="http://www.w3.org/2000/svg" width="288" height="288" fill="none" viewBox="0 0 1602 673"><path fill="#ffff99" fill-opacity=".95" fill-rule="evenodd" d="M799.798 15.3964C742.977 1.72972 608.88 -15.3036 527.058 25.8964C424.78 77.3964 338.808 98.3965 236.531 71.3965C134.253 44.3965 52.7275 130.896 46.3043 195.396C43.3594 224.969 55.6822 250.967 69.4632 280.043C85.74 314.383 104.051 353.016 101.643 406.896C97.196 506.396 286.101 631.769 407.472 592.5C547.388 547.23 696.521 535.628 798.939 543.827C829.496 566.031 916.835 619.41 1010.76 584.5C1089.62 555.192 1147.85 564.704 1192.79 572.044C1239.08 579.606 1271.26 584.863 1297.34 543C1348.72 460.5 1339.83 409.5 1307.71 341.5C1297.03 318.881 1295.2 284.811 1293.21 247.699C1289.22 173.239 1284.57 86.5326 1206.42 55.4998C1140.29 29.2396 1108.04 40.7722 1068.82 54.7962C1038.6 65.6051 1004.23 77.894 947.023 75.5C872.271 72.3718 846.69 49.9941 827.811 33.4791C818.535 25.3643 810.876 18.665 799.798 16.3601V15.3964Z" clip-rule="evenodd" class="colorFFEAD4 svgShape"></path><path fill="#ffff66" fill-opacity=".85" fill-rule="evenodd" d="M792.584 56.2458C767.618 63.5235 724.349 70.1342 696.859 53.2636C657.768 29.274 503.386 12.2814 428.669 41.2688C388.396 56.8932 366.067 54.8708 342.53 52.7389C322.399 50.9156 301.383 49.0121 267.5 58C185.224 79.8247 170.177 112.269 153.473 148.288C137.997 181.658 121.098 218.096 48 252C-25.44 286.063 -37 537 181.5 531.056C207.68 530.344 225.182 522.552 241.816 515.146C274.12 500.764 303.151 487.838 386.115 531.056C430.603 554.231 458.724 574.4 480.923 590.323C521.438 619.382 542.23 634.294 606.802 627.514C686.764 619.118 770.091 645.673 801.76 660V659.747C834.447 671.766 915.463 685.659 994.456 650C1035.53 631.46 1055.84 612.007 1073.12 595.462C1098.25 571.406 1116.94 553.5 1183.69 553.5C1296.35 553.5 1384.79 492 1372.93 388.5C1370.62 368.335 1356.7 350.949 1341.83 332.365C1315.72 299.76 1286.67 263.465 1312.16 202C1352.18 105.5 1219.76 40.0002 1138.24 75.5002C1102.76 90.948 1054.48 75.1531 1002.38 58.1072C934.741 35.9807 860.662 11.7462 799.783 51.0001C797.29 52.6076 794.891 54.3579 792.584 56.2458Z" clip-rule="evenodd" class="colorFFEFE0 svgShape"></path></svg></g></svg>