<svg id="SvgjsSvg1088" width="288" height="288" xmlns="http://www.w3.org/2000/svg" version="1.1" xmlns:xlink="http://www.w3.org/1999/xlink" xmlns:svgjs="http://svgjs.com/svgjs"><defs id="SvgjsDefs1089"></defs><g id="SvgjsG1090"><svg xmlns="http://www.w3.org/2000/svg" width="288" height="288" fill="none" viewBox="0 0 1440 700"><g clip-path="url(#clip0)" fill="#000000" class="color000 svgShape"><path fill="#ffeb99" d="M216 209.659C126.4 216.787 34.6667 190.19 0 176V6662H1449V289.353C1383.33 309.153 1233.8 262.029 1161 231.934C1070 194.315 1012.5 265.098 879.5 267.573C746.5 270.048 645.5 188.375 600 216.094C554.5 243.814 479.5 243.814 432.5 227.479C385.5 211.144 328 200.75 216 209.659Z" class="colorFFEAD2 svgShape"></path><path fill="url(#paint0_linear)" fill-opacity=".7" fill-rule="evenodd" d="M4 313.248C41.8584 317.451 135.287 320 206.134 296.571C294.692 267.284 394.923 272.273 438.287 283.554C441.839 284.478 445.441 285.439 449.089 286.412C496.834 299.149 552.48 313.992 606.398 275.826C639.957 252.071 692.419 248.307 731.477 245.505C759.968 243.461 781.327 241.929 783.015 233.522C788.685 225.93 811.434 204.073 851.06 213.185C867.387 216.939 879.529 221.665 891.211 226.213C914.971 235.463 936.833 243.973 988.151 242.065C1064.7 239.217 1179.28 242.065 1270.34 278.673C1318.8 298.156 1366.44 298.084 1409.32 298.019C1427.5 297.992 1444.83 297.966 1461 299.432V1853H1491.59C1494.7 3623.98 1477.81 6318.37 1465.5 6645.5H4V313.248Z" clip-rule="evenodd"></path></g><defs><linearGradient id="paint0_linear" x1="747.981" x2="747.981" y1="211" y2="6645.5" gradientUnits="userSpaceOnUse"><stop stop-color="#ffeb99" class="stopColorFFEDDD svgShape"></stop><stop offset="1" stop-color="#ffeb99" class="stopColorFEE7CF svgShape"></stop></linearGradient><clipPath id="clip0"><rect width="1440" height="700" fill="#ffffff" class="colorfff svgShape"></rect></clipPath></defs></svg></g></svg>
