<svg id="SvgjsSvg1001" width="288" height="288" xmlns="http://www.w3.org/2000/svg" version="1.1" xmlns:xlink="http://www.w3.org/1999/xlink" xmlns:svgjs="http://svgjs.com/svgjs"><defs id="SvgjsDefs1002"></defs><g id="SvgjsG1008" transform="matrix(1,0,0,1,0,0)"><svg xmlns="http://www.w3.org/2000/svg" width="288" height="288" fill="none" viewBox="0 0 537 1118"><g clip-path="url(#clip0)" fill="#000000" class="color000 svgShape"><path fill="#333333" d="M261.994 382.015H423.392C438.857 382.015 451.387 394.542 451.387 409.986V517.753V550.981V578.034V697.128V829.357C451.387 844.801 438.857 857.313 423.392 857.313H261.98C246.514 857.313 233.985 844.801 233.985 829.357V795.226V691.324C234.222 690.361 234.311 689.769 234.119 689.266C234.089 689.192 234.045 689.044 233.985 688.866V519.249V490.493V409.986C234 394.542 246.529 382.015 261.994 382.015ZM242.051 791.465C242.051 793.183 242.259 794.842 242.674 796.441C244.883 805.236 252.861 811.751 262.35 811.751H423.022C434.246 811.751 443.335 802.66 443.335 791.465V411.334C443.335 400.139 434.246 391.048 423.022 391.048H262.35C251.126 391.048 242.037 400.139 242.037 411.334V791.465H242.051Z" class="color3F83B2 svgShape"></path><path fill="#0d0d0d" d="M434.884 855.136C426.244 855.136 419.24 848.142 419.24 839.515C419.24 830.887 426.244 823.893 434.884 823.893C443.523 823.893 450.527 830.887 450.527 839.515C450.527 848.142 443.523 855.136 434.884 855.136Z" class="color16689D svgShape"></path><path fill="#333333" d="M316.041 398.703H376.241C379.354 398.703 381.905 396.156 381.905 393.047V392.069C381.905 388.96 379.354 386.413 376.241 386.413H316.041C312.927 386.413 310.377 388.96 310.377 392.069V393.047C310.377 396.156 312.927 398.703 316.041 398.703Z" class="color3F83B2 svgShape"></path><path fill="#f1ad73" d="M502.112 612.09L498.375 617.939L503.253 620.693L505.804 609.529C505.804 609.529 502.141 609.247 499.784 608.166C497.426 607.086 499.131 611.158 502.112 612.09Z" class="colorF1AD73 svgShape"></path><path fill="url(#paint0_linear)" d="M497.486 616.207C497.486 616.207 496.285 616.266 496.433 615.007C496.581 613.749 498.509 609.292 496.433 610.18C494.594 610.95 492.934 615.763 487.596 618.576C483.385 620.782 481.353 627.12 481.353 627.12L497.486 616.207Z"></path><path fill="#f1ad73" d="M506.323 605.279C506.323 605.279 507.539 597.475 508.932 596.439C510.326 595.402 508.146 604.79 508.932 614.341C509.718 623.906 506.323 605.279 506.323 605.279Z" class="colorF1AD73 svgShape"></path><path fill="#0d0d0d" d="M387.361 586.311C376.552 581.025 363.726 581.277 353.036 586.8C344.94 590.975 336.488 598.29 335.02 610.802C331.595 640.106 317.153 630.511 298.619 654.661C274.198 686.467 329.46 753.5 396.91 707.212C396.91 707.212 418.722 694.626 403.049 660.658C403.049 660.658 397.296 649.923 404.532 634.509C410.433 621.996 409.143 596.957 387.361 586.311Z" class="colorD98D56 svgShape"></path><path fill="url(#paint1_linear)" d="M355.556 723.382C331.415 723.382 311.845 705.323 311.845 683.047C311.845 660.77 331.415 642.712 355.556 642.712C379.697 642.712 399.268 660.77 399.268 683.047C399.268 705.323 379.697 723.382 355.556 723.382Z"></path><path fill="url(#paint2_linear)" d="M356.075 658.437C372.178 666.448 377.516 660.14 377.857 659.74C377.857 659.725 377.857 659.725 377.857 659.725C377.501 658.733 377.234 657.504 377.071 655.994C376.774 653.254 379.117 651.241 379.117 651.241L356.09 643.837C356.09 643.837 358.611 649.182 356.564 656.912C356.431 657.445 356.268 657.948 356.075 658.437Z"></path><path fill="#f1ad73" d="M340.625 629.785C337.144 629.785 334.323 626.967 334.323 623.492C334.323 620.016 337.144 617.199 340.625 617.199C344.105 617.199 346.927 620.016 346.927 623.492C346.927 626.967 344.105 629.785 340.625 629.785Z" class="colorF1AD73 svgShape"></path><path fill="#f1ad73" d="M373.156 651.433C355.82 651.433 341.767 637.399 341.767 620.086C341.767 602.774 355.82 588.739 373.156 588.739C390.493 588.739 404.546 602.774 404.546 620.086C404.546 637.399 390.493 651.433 373.156 651.433Z" class="colorF1AD73 svgShape"></path><path stroke="#d98d56" stroke-linecap="round" stroke-miterlimit="10" stroke-width="3" d="M374.654 615.333C374.654 615.333 377.442 617.584 380.214 615.333M380.407 622.219C380.407 622.219 386.931 626.928 392.595 621.212M390.638 614.163C390.638 614.163 393.426 616.414 396.198 614.163" fill="#000000" class="color000 svgShape colorStrokeD98D56 svgStroke"></path><path fill="#f1ad73" d="M332.707 693.871C346.526 650.737 397.622 672.134 397.622 672.134 397.622 672.134 393.189 707.049 390.312 725.085 387.628 741.935 410.033 759.615 413.058 761.91 413.146 761.999 413.25 762.073 413.354 762.147 413.354 762.162 413.384 762.177 413.384 762.177 420.368 767.448 431.117 775.785 440.815 784.106 450.527 792.458 459.171 800.794 461.914 806.095 469.224 820.162 468.083 885.625 451.713 940.59 451.713 940.59 453.255 957.899 467.104 970.382 467.104 970.382 469.328 972.573 470.826 973.328 471.241 973.536 471.27 973.98 471.122 974.498 470.485 976.571 468.097 977.519 466.096 976.704 460.965 974.602 450.334 969.686 446.197 963.452 440.666 955.101 433.994 958.477 438.027 947.638 441.986 936.991 441.956 936.754 441.956 936.754L442.327 936.917C452.232 923.902 450.156 836.746 450.156 818.948 450.156 800.972 415.415 782.107 404.621 776.347 393.826 770.587 383.136 771.979 383.136 771.979 383.136 771.979 355.616 761.688 344.51 768.1 343.324 768.796 342.211 769.551 341.263 770.425 340.343 766.308 339.735 762.295 339.646 758.668 339.543 755.129 339.913 751.945 340.907 749.369 346.586 734.561 344.02 716.408 338.653 716.408 333.285 716.408 330.854 735.761 330.854 735.761 330.097 722.094 328.259 707.775 332.707 693.871zM366.929 949.103C367.819 957.336 375.781 967.568 379.77 972.232 381.327 974.039 384.159 974.32 385.819 972.602 386.249 972.173 386.442 971.729 386.131 971.299 385.048 969.789 383.966 966.517 383.966 966.517 377.012 948.082 383.328 931.024 383.921 929.513L383.936 929.528C384.87 928.521 385.804 927.514 386.694 926.507L377.812 922.036 376.167 921.221C375.455 922.198 374.595 923.042 373.587 923.753 371.881 924.967 369.628 926.774 366.899 929.41 357.721 938.294 365.743 938.101 366.929 949.103z" class="colorF1AD73 svgShape"></path><path fill="#f1ad73" d="M341.307 770.439C342.508 775.681 344.272 781.086 346.289 786.135C350.07 795.582 354.755 803.696 358.388 806.865C366.751 814.165 372.119 821.628 372.445 822.087C372.445 822.102 372.46 822.102 372.46 822.102C385.745 829.713 399.031 834.362 405.377 836.332C407.245 836.924 408.061 839.115 407.023 840.774C393.989 861.356 382.023 903.112 378.257 917.031C377.842 918.556 377.16 919.978 376.196 921.236L377.842 922.051L386.724 926.523C408.98 901.957 426.15 872.609 435.017 850.665C440.192 837.842 442.564 827.551 441.423 822.205C438.264 807.398 375.01 762.917 375.01 762.917C375.01 762.917 355.675 761.703 344.554 768.1C343.353 768.796 342.256 769.566 341.307 770.439Z" class="colorF1AD73 svgShape"></path><path fill="url(#paint3_linear)" d="M328.096 725.351C341.292 771.624 335.435 789.807 342.167 801.446C352.101 818.607 358.744 814.254 372.445 822.072C372.119 821.613 366.751 814.15 358.403 806.85C354.756 803.667 350.07 795.552 346.289 786.135C344.258 781.086 341.292 762.828 343.501 749.235C346.052 733.584 345.889 714.882 340.521 714.882C335.154 714.897 328.096 725.351 328.096 725.351Z"></path><path fill="url(#paint4_linear)" d="M439.821 822.072C440.963 827.403 440.192 837.842 435.017 850.665C433.935 885.595 442.06 937.302 442.06 937.302C452.306 925.679 450.186 836.924 450.186 818.963C450.186 800.987 417.135 780.094 406.341 774.334C395.546 768.574 383.18 768.825 383.18 768.825C383.18 768.825 436.678 807.265 439.821 822.072Z"></path><path fill="url(#paint5_linear)" d="M333.137 807.368C333.137 807.368 342.464 807.575 346.259 809.027C349.862 810.404 352.902 811.751 355.111 811.988C355.749 812.062 355.764 814.046 352.991 814.046C350.218 814.046 347.801 813.35 344.851 812.121C341.9 810.877 333.137 807.368 333.137 807.368Z"></path><path fill="#f1ad73" d="M329.341 801.786C329.341 801.786 331.031 804.644 337.837 806.954C343.442 808.864 348.068 809.96 350.559 813.04L350.545 812.951C350.545 812.951 354.429 817.423 356.223 820.932C358.018 824.441 362.154 827.018 360.983 827.565C359.812 828.113 357.365 826.899 354.37 824.175C353.94 823.79 353.525 823.331 353.139 822.886C353.258 827.106 352.561 831.267 350.811 832.348C349.299 833.281 348.81 829.328 348.81 829.328C348.81 829.328 348.469 833.192 347.193 833.192C345.385 833.192 344.821 829.727 344.821 829.727C344.821 829.727 345.37 832.733 344.006 833.148C342.864 833.503 341.885 831.637 341.559 829.017C341.233 826.396 340.402 822.975 338.757 822.975C336.117 822.975 324.344 818.4 320.044 806.036C315.729 793.687 329.341 801.786 329.341 801.786Z" class="colorF1AD73 svgShape"></path><path fill="#f1ad73" d="M318.235 683.21C328.941 667.07 350.678 672.948 356.075 658.437C372.178 666.448 377.516 660.14 377.857 659.74C380.244 666.611 386.857 662.998 397.4 666.448C400.232 667.499 442.89 683.891 451.031 676.768C459.364 669.468 473.895 638.936 479.603 630.896C485.312 622.855 505.478 622.115 492.296 631.636C479.099 641.157 482.317 686.245 464.287 698.106C446.256 709.966 389.096 700.875 389.096 700.875C389.096 700.875 388.859 693.93 389.363 686.275L363.533 694.226C363.533 694.226 313.831 729.231 311.874 754.27C309.665 782.507 336.058 808.79 336.058 808.79L324.418 811.929C290.878 773.948 292.035 760.903 291.279 752.848C290.33 742.794 304.683 703.688 318.235 683.21Z" class="colorF1AD73 svgShape"></path><path fill="#0d0d0d" d="M340.625 617.199C340.625 617.199 369.672 617.377 380.407 600.481C380.407 600.481 391.587 610.003 403.064 608.848C403.064 608.848 400.854 599.252 395.131 595.018C389.408 590.797 379.71 584.578 367.018 587.318C354.326 590.057 340.595 603.709 340.625 607.693C340.655 611.661 340.625 617.199 340.625 617.199Z" class="colorD98D56 svgShape"></path><path fill="#f1ad73" d="M479.604 630.895C483.399 620.056 493.749 616.355 497.471 616.221C501.207 616.073 505.744 611.231 505.744 611.231C500.688 601.473 507.376 590.116 506.634 598.749C505.893 607.367 513.336 618.813 508.117 620.649C502.912 622.485 492.281 631.651 492.281 631.651L479.604 630.895Z" class="colorF1AD73 svgShape"></path><path fill="#f1ad73" d="M502.156 619.42L506.975 611.32C506.975 611.32 501.533 602.599 501.4 600.6C501.296 599.149 498.494 601.607 501.296 606.937C503.758 611.631 504.41 612.312 501.682 614.889C498.953 617.465 502.156 619.42 502.156 619.42Z" class="colorF1AD73 svgShape"></path></g><path fill="#ffff99" fill-opacity=".85" d="M154.5 498.515C116 516.515 45.8333 525.348 1 503.515V78.5151C36 78.5151 41 46.5152 84.5 14.5152C128 -17.4848 211 8.0152 230.5 46.5152C250 85.0152 326.5 91.5152 440.5 107.515C554.5 123.515 543 207.015 524 272.515C505 338.015 386 390.015 310.5 378.515C235 367.015 220.643 467.591 154.5 498.515Z" class="colorFFEFE0 svgShape"></path><path fill="#ffff66" fill-opacity=".8" d="M178.5 359.515C129.3 420.715 39 437.015 0 437.515V57.515C45.8333 46.3484 148.7 33.4153 193.5 71.0153C249.5 118.015 333 46.5153 406 71.0153C479 95.5153 501 179.015 456 249.515C411 320.015 240 283.015 178.5 359.515Z" class="colorFFEAD3 svgShape"></path><path fill="#ffff99" d="M102.5 902.731C72.5 871.531 22.6667 889.731 1.5 902.731V1099.73C20.1667 1089.73 41 1066.73 71 1088.73C89.7955 1102.51 133 1138.73 208.5 1099.73C284 1060.73 254.5 963.731 197.5 959.731C140.5 955.731 140 941.731 102.5 902.731Z" class="colorFFECDB svgShape"></path><path fill="#ffff66" fill-opacity=".8" d="M141 1058.73C106 1107.73 31.1667 1113.06 1 1107.73V818.73C8.5 819.897 30.5 818.03 58.5 801.23C93.5 780.23 174.854 824.334 135 903.23C110.5 951.731 193.857 984.73 141 1058.73Z" class="colorFFEAD5 svgShape"></path><defs><linearGradient id="paint0_linear" x1="497.481" x2="481.343" y1="618.583" y2="618.583" gradientUnits="userSpaceOnUse"><stop stop-color="#f1ad73" class="stopColorF1AD73 svgShape"></stop><stop offset=".008" stop-color="#f0ad73" class="stopColorF0AD73 svgShape"></stop><stop offset=".611" stop-color="#df955d" class="stopColorDF955D svgShape"></stop><stop offset="1" stop-color="#d98d56" class="stopColorD98D56 svgShape"></stop></linearGradient><linearGradient id="paint1_linear" x1="355.563" x2="355.563" y1="642.714" y2="723.39" gradientUnits="userSpaceOnUse"><stop stop-color="#d98d56" class="stopColorD98D56 svgShape"></stop><stop offset="1" stop-color="#c57543" class="stopColorC57543 svgShape"></stop></linearGradient><linearGradient id="paint2_linear" x1="361.359" x2="370.227" y1="661.483" y2="646.101" gradientUnits="userSpaceOnUse"><stop offset=".19" stop-color="#f1ad73" class="stopColorF1AD73 svgShape"></stop><stop offset=".661" stop-color="#e49c63" class="stopColorE49C63 svgShape"></stop><stop offset="1" stop-color="#d98d56" class="stopColorD98D56 svgShape"></stop></linearGradient><linearGradient id="paint3_linear" x1="390.024" x2="316.538" y1="784.435" y2="750.121" gradientUnits="userSpaceOnUse"><stop offset=".19" stop-color="#f1ad73" class="stopColorF1AD73 svgShape"></stop><stop offset=".504" stop-color="#eeaa70" class="stopColorEEAA70 svgShape"></stop><stop offset=".765" stop-color="#e69e65" class="stopColorE69E65 svgShape"></stop><stop offset="1" stop-color="#d98d56" class="stopColorD98D56 svgShape"></stop></linearGradient><linearGradient id="paint4_linear" x1="416.771" x2="416.771" y1="768.815" y2="937.299" gradientUnits="userSpaceOnUse"><stop stop-color="#f1ad73" class="stopColorF1AD73 svgShape"></stop><stop offset=".539" stop-color="#d98d56" class="stopColorD98D56 svgShape"></stop><stop offset=".602" stop-color="#de935b" class="stopColorDE935B svgShape"></stop><stop offset=".833" stop-color="#eca66d" class="stopColorECA66D svgShape"></stop><stop offset="1" stop-color="#f1ad73" class="stopColorF1AD73 svgShape"></stop></linearGradient><linearGradient id="paint5_linear" x1="355.46" x2="333.137" y1="810.706" y2="810.706" gradientUnits="userSpaceOnUse"><stop stop-color="#f1ad73" class="stopColorF1AD73 svgShape"></stop><stop offset=".008" stop-color="#f0ad73" class="stopColorF0AD73 svgShape"></stop><stop offset=".611" stop-color="#df955d" class="stopColorDF955D svgShape"></stop><stop offset="1" stop-color="#d98d56" class="stopColorD98D56 svgShape"></stop></linearGradient><clipPath id="clip0"><rect width="276" height="595" fill="#ffffff" transform="matrix(-1 0 0 1 510 382.015)" class="colorfff svgShape"></rect></clipPath></defs></svg></g></svg>